<?xml version="1.0" encoding="utf-8"?>
<!-- Generator: Adobe Illustrator 16.0.0, SVG Export Plug-In . SVG Version: 6.00 Build 0)  -->
<!DOCTYPE svg PUBLIC "-//W3C//DTD SVG 1.1//EN" "http://www.w3.org/Graphics/SVG/1.1/DTD/svg11.dtd">
<svg version="1.1" id="Layer_1" xmlns="http://www.w3.org/2000/svg" xmlns:xlink="http://www.w3.org/1999/xlink" x="0px" y="0px"
	 width="40px" height="40px" viewBox="0 0 40 40" enable-background="new 0 0 40 40" xml:space="preserve">
<path fill="#019BCE" d="M25.797,19.749c0,3.217-2.609,5.826-5.824,5.826c-3.217,0-5.824-2.608-5.824-5.826
	c0-3.216,2.607-5.823,5.824-5.823C23.188,13.926,25.797,16.532,25.797,19.749z M37.444,21.206H32.99
	c-0.661,6.106-5.456,10.9-11.562,11.562v4.455h-2.912v-4.455c-6.106-0.661-10.9-5.455-11.564-11.562H2.5v-2.912h4.452
	c0.665-6.106,5.458-10.9,11.564-11.563V2.277h2.912V6.73c6.105,0.664,10.9,5.458,11.562,11.563h4.454V21.206z M30.893,19.749
	c0-5.969-4.951-10.919-10.92-10.919c-5.97,0-10.921,4.951-10.921,10.919c0,5.97,4.951,10.92,10.921,10.92
	C25.941,30.669,30.893,25.719,30.893,19.749z"/>
</svg>
