<?xml version="1.0" encoding="utf-8"?>
<!-- Generator: Adobe Illustrator 16.0.0, SVG Export Plug-In . SVG Version: 6.00 Build 0)  -->
<!DOCTYPE svg PUBLIC "-//W3C//DTD SVG 1.1//EN" "http://www.w3.org/Graphics/SVG/1.1/DTD/svg11.dtd">
<svg version="1.1" id="Layer_1" xmlns="http://www.w3.org/2000/svg" xmlns:xlink="http://www.w3.org/1999/xlink" x="0px" y="0px"
	 width="35px" height="46px" viewBox="0 0 35 46" enable-background="new 0 0 35 46" xml:space="preserve">
<g>
	<g>
		<g>
			<path fill-rule="evenodd" clip-rule="evenodd" fill="#65AF45" d="M27.598,0.839H7.402c-3.733,0-6.759,3.018-6.759,6.74v20.137
				c0,3.722,3.026,6.74,6.759,6.74h4.097c1.947,3.25,3.946,6.461,5.935,9.667c1.349-2.302,2.693-4.633,4.011-6.875
				c0.36-0.657,0.777-1.315,1.137-1.943c0.165-0.286,0.428-0.571,0.647-0.848h4.371c3.733,0,6.759-3.019,6.759-6.74V7.579
				C34.357,3.856,31.332,0.839,27.598,0.839z"/>
		</g>
		<g>
			<path fill="none" stroke="#4C9B45" stroke-width="0.5" stroke-miterlimit="10" d="M27.598,0.839H7.402
				c-3.733,0-6.759,3.018-6.759,6.74v20.137c0,3.722,3.026,6.74,6.759,6.74h4.097c1.947,3.25,3.946,6.461,5.935,9.667
				c1.349-2.302,2.693-4.633,4.011-6.875c0.36-0.657,0.777-1.315,1.137-1.943c0.165-0.286,0.428-0.571,0.647-0.848h4.371
				c3.733,0,6.759-3.019,6.759-6.74V7.579C34.357,3.856,31.332,0.839,27.598,0.839z"/>
		</g>
	</g>
	<g>
		<path fill="#FDFDFE" d="M20.085,30.409h-1.894V17.435h3.752c3.102,0,4.575,1.613,4.575,3.928c0,2.313-1.473,3.925-4.575,3.925
			h-1.858V30.409z M20.085,23.554h1.858c2.156,0,2.682-1.228,2.682-2.191c0-0.966-0.525-2.192-2.682-2.192h-1.858V23.554z"/>
		<path fill="#FFFFFF" d="M16.323,15.732c0,0-3.276,1.14-6.01-1.595l0,0c-2.735-2.735-1.596-6.01-1.596-6.01L8.714,8.13
			c0,0,3.275-1.139,6.01,1.596l0,0c2.734,2.735,1.596,6.011,1.596,6.011L16.323,15.732z"/>
		<path fill="#FFFFFF" d="M18.043,15.74c0,0-1.144-3.274,1.587-6.011l0,0c2.732-2.739,6.008-1.604,6.008-1.604l-0.003-0.002
			c0,0,1.143,3.273-1.587,6.012l0,0c-2.731,2.738-6.009,1.604-6.009,1.604L18.043,15.74z"/>
		<path fill="#FFFFFF" d="M8.722,25.06c0,0-1.143-3.273,1.588-6.011h0c2.732-2.737,6.009-1.604,6.009-1.604l-0.002-0.002
			c0,0,1.142,3.274-1.588,6.013l0,0c-2.732,2.737-6.009,1.602-6.009,1.602L8.722,25.06z"/>
	</g>
</g>
</svg>
