<?xml version="1.0" encoding="utf-8"?>
<!-- Generator: Adobe Illustrator 16.0.0, SVG Export Plug-In . SVG Version: 6.00 Build 0)  -->
<!DOCTYPE svg PUBLIC "-//W3C//DTD SVG 1.1//EN" "http://www.w3.org/Graphics/SVG/1.1/DTD/svg11.dtd">
<svg version="1.1" id="Layer_1" xmlns="http://www.w3.org/2000/svg" xmlns:xlink="http://www.w3.org/1999/xlink" x="0px" y="0px"
	 width="576px" height="576px" viewBox="0 0 576 576" enable-background="new 0 0 576 576" xml:space="preserve">
<g>
	<g>
		<path fill-rule="evenodd" clip-rule="evenodd" fill="#333333" d="M385.075,245.507h-98.649v291.976h52.015V430.331h46.635
			c62.773,0,111.194-29.904,111.194-94.64C496.27,267.827,449.194,245.507,385.075,245.507z M380.587,388.812H338.44V287.027h42.146
			c42.597,0,64.569,12.056,64.569,48.664C445.156,371.404,424.532,388.812,380.587,388.812z M474.332,37.026
			C251.566,20.478,298.11,214.121,298.11,214.121C490.957,230.68,474.332,37.026,474.332,37.026z M244.983,214.121
			c0,0,46.55-193.644-176.222-177.095C68.761,37.026,52.136,230.68,244.983,214.121z M73.749,437.214
			c222.771,16.562,176.223-177.095,176.223-177.095C57.124,243.572,73.749,437.214,73.749,437.214z"/>
	</g>
</g>
</svg>
