<?xml version="1.0" encoding="utf-8"?>
<!-- Generator: Adobe Illustrator 16.0.0, SVG Export Plug-In . SVG Version: 6.00 Build 0)  -->
<!DOCTYPE svg PUBLIC "-//W3C//DTD SVG 1.1//EN" "http://www.w3.org/Graphics/SVG/1.1/DTD/svg11.dtd">
<svg version="1.1" id="Layer_1" xmlns="http://www.w3.org/2000/svg" xmlns:xlink="http://www.w3.org/1999/xlink" x="0px" y="0px"
	 width="360px" height="360px" viewBox="0 0 360 360" enable-background="new 0 0 360 360" xml:space="preserve">
<g>
	<g>
		<g>
			<path fill-rule="evenodd" clip-rule="evenodd" fill="#65AF45" d="M264.004,7.679H103.881c-29.598,0-53.591,23.923-53.591,53.434
				v159.658c0,29.513,23.993,53.437,53.591,53.437h32.403c14.983,25.01,30.395,49.695,45.708,74.361
				c-13.659,0.052-24.528,0.92-24.528,1.982c0,1.104,11.552,1.993,25.804,1.993c14.247,0,25.797-0.889,25.797-1.993
				c0-1.058-10.761-1.922-24.321-1.98c10.247-17.509,20.455-35.188,30.474-52.228c2.85-5.214,6.157-10.429,9.009-15.409
				c1.301-2.267,3.402-4.531,5.139-6.727h34.64c29.598,0,53.588-23.924,53.588-53.437V61.113
				C317.592,31.603,293.602,7.679,264.004,7.679z"/>
		</g>
	</g>
	<g>
		<path fill="#FDFDFE" d="M204.434,242.12h-15.011V139.265h29.743c24.601,0,36.28,12.788,36.28,31.14
			c0,18.344-11.68,31.126-36.28,31.126h-14.732V242.12z M204.434,187.775h14.732c17.096,0,21.267-9.73,21.267-17.371
			c0-7.651-4.171-17.382-21.267-17.382h-14.732V187.775z"/>
		<path fill="#FFFFFF" d="M174.604,125.763c0,0-25.973,9.031-47.644-12.647l0,0c-21.688-21.685-12.655-47.653-12.655-47.653
			l-0.021,0.021c0,0,25.967-9.023,47.65,12.648l0,0c21.676,21.686,12.649,47.658,12.649,47.658L174.604,125.763z"/>
		<path fill="#FFFFFF" d="M188.244,125.822c0,0-9.062-25.961,12.591-47.661h-0.005c21.664-21.712,47.637-12.716,47.637-12.716
			l-0.025-0.018c0,0,9.062,25.953-12.584,47.668l0,0c-21.653,21.702-47.638,12.71-47.638,12.71L188.244,125.822z"/>
		<path fill="#FFFFFF" d="M114.343,199.722c0,0-9.061-25.96,12.593-47.663h-0.006c21.661-21.708,47.639-12.715,47.639-12.715
			l-0.023-0.02c0,0,9.058,25.956-12.586,47.671l0,0c-21.655,21.702-47.64,12.707-47.64,12.707L114.343,199.722z"/>
	</g>
</g>
</svg>
